PathFileType	4	(X/Y/Z)	Patient4_TMGait_0pt3_02_right_26.trc.trc
DataRate	CameraRate	NumFrames	NumMarkers	Units	OrigDataRate	OrigDataStartFrame	OrigNumFrames
51.094890510949	51.094890510949	4	33	mm	51.094890510949	53	       141
Frame#	Time	Sacral			L.Shoulder			Chest			R.Shoulder			Neck			R.ASIS			L.ASIS			R.Thigh.Superior			R.Thigh.Lateral			R.Thigh.Inferior			R.Patella			L.Thigh.Superior			L.Thigh.Lateral			L.Thigh.Inferior			L.Patella			L.Shank.Superior			L.Shank.Lateral			L.Shank.Inferior			R.Shank.Superior			R.Shank.Lateral			R.Shank.Inferior			R.Heel			R.Midfoot.Superior			R.Midfoot.Lateral			R.Toe			L.Heel			L.Midfoot.Lateral			L.Midfoot.Superior			L.Toe			L.Elbow			L.Wrist			R.Elbow			R.Wrist			
		X1	Y1	Z1	X2	Y2	Z2	X3	Y3	Z3	X4	Y4	Z4	X5	Y5	Z5	X6	Y6	Z6	X7	Y7	Z7	X8	Y8	Z8	X9	Y9	Z9	X10	Y10	Z10	X11	Y11	Z11	X12	Y12	Z12	X13	Y13	Z13	X14	Y14	Z14	X15	Y15	Z15	X16	Y16	Z16	X17	Y17	Z17	X18	Y18	Z18	X19	Y19	Z19	X20	Y20	Z20	X21	Y21	Z21	X22	Y22	Z22	X23	Y23	Z23	X24	Y24	Z24	X25	Y25	Z25	X26	Y26	Z26	X27	Y27	Z27	X28	Y28	Z28	X29	Y29	Z29	X30	Y30	Z30	X31	Y31	Z31	X32	Y32	Z32	X33	Y33	Z33	

53	51.007714285714	767.134434241888	984.088813194665	544.883551418294	937.371497868615	1420.087001247288	366.761007837096	1034.924889095509	1353.599889643509	531.053763519436	945.372663533237	1421.216357092521	703.515914572785	914.481815175510	1482.354217522744	525.149335213846	1003.856908717418	929.872305029971	659.959711092440	982.666639168732	952.180912212441	386.225188726164	1058.470662398341	734.234017057993	611.201413293709	986.111614710804	613.853408904472	662.418847732690	1062.417930133222	572.074152157860	575.286192644914	1067.012044471016	476.072539420570	574.716482374921	1071.639040712927	766.803241259628	416.726453662613	1030.616031867928	640.027612740255	336.109607042404	1131.611724496334	578.072746348231	403.388661724463	1143.516315097244	487.778514575014	391.322987867457	1075.163939595958	423.384772348967	376.936541742285	931.596420849000	385.884644084264	330.112710625059	921.234272275512	252.020554576888	371.746187210510	1022.653127760910	388.423237304046	577.319747832113	940.565534523705	291.995714689852	638.640976961083	961.548046292700	197.051466147528	567.373962680406	804.871263742803	43.819290729224	539.784623010182	977.631843403431	95.479243839756	570.311722575807	889.884135199067	37.563550188369	611.694068673776	1098.070671754213	41.917987508306	595.933687211413	733.620493188770	187.371548927666	412.285420305494	785.225859872450	148.539952557982	325.259882615772	890.895631266022	151.370156434037	342.158441607412	962.779021007952	40.699237809201	298.608007934875	981.343887900744	1068.312381634834	246.149763708715	1166.148236097672	886.399818975877	248.298792798552	912.320266007875	1069.988199071244	820.235392482109	1024.351754163114	834.423445669867	827.011124224310	
54	51.027285714286	766.107460916448	982.994474128063	548.525564694297	934.245625255108	1418.145597220289	367.517478227730	1034.060614920109	1352.201178446264	530.770587696388	947.071578037191	1420.448388960326	704.363100105250	913.833233411488	1481.235278301888	526.073985221228	1003.633617282091	928.548374353583	661.231788906507	980.001934880397	951.347766423858	387.633307791569	1057.782935057432	733.043629908330	612.111775670096	985.787369834579	612.503349517998	663.359506207685	1061.971566053353	570.941998899510	575.908920974219	1066.444694635457	474.404555651553	575.307629318775	1070.592420629255	768.300900003352	417.620206429539	1031.345404730658	641.343663332650	336.561063657236	1133.573481268107	580.959099112962	403.324707670568	1147.578953302889	491.506886583870	390.887372133200	1081.843171751265	425.549990279069	376.445698944926	940.006297082562	381.718646960213	330.910967676161	936.912960376558	247.404963197132	371.708404640254	1020.863534744975	387.047354639252	577.682371105896	937.674809783139	291.428007974782	638.914999491959	957.442761730725	196.405872719653	567.398685627640	799.151451078982	44.082440780648	539.689007901513	971.904252567069	95.353399849271	570.148346709566	884.105411713560	37.670434176010	611.555890312187	1092.309336382563	41.471944690300	596.045020940474	753.779256059308	171.315377676974	413.894600983853	806.574399155818	137.595122556383	325.552620747648	911.733294217222	147.065815310193	341.416907637327	989.866300001588	42.338260424845	295.063547807323	965.456062745198	1063.443437464366	250.385457274616	1131.551214439690	864.156865108441	253.003061043597	927.335765953692	1067.821481193110	821.829954152307	1054.709990732321	840.292210448331	825.667546199075	
55	51.046857142857	765.088420919862	982.284760272560	551.906910243940	931.208790258044	1416.509350847896	368.118956971955	1033.256449909772	1351.081559972396	530.297336915132	948.853176723526	1420.038800705911	704.952946872394	913.258157360071	1480.406639085702	526.781273824489	1003.243245747091	927.430153144400	662.373472816434	977.385493451772	950.765062554387	388.938086846981	1056.632981677378	731.957673515898	612.978008088571	984.828942458673	611.392177692638	664.312723908626	1060.836350698849	569.919887714951	576.582800099753	1065.078780496164	472.959342344678	575.985953272192	1068.930010016463	769.491829185155	418.156358958393	1030.991827995438	642.530691601689	336.654410724289	1134.181499267400	583.419760118920	402.883641974479	1150.211999328908	495.140001320220	390.121008101301	1087.594927920564	427.650532134849	375.581309827672	948.391061300687	376.481190596860	330.819439470867	953.410303285379	242.081925026499	370.967645498482	1018.467539094348	385.890034133527	578.134337591596	934.318701455743	290.961052261701	639.252150247200	953.075734684482	195.896447697535	567.500284235459	793.419056364991	44.374014416616	539.600282565381	966.168669447787	95.257587699506	570.015583359701	878.320845776659	37.782052178987	611.433455239700	1086.524542696003	41.075348193699	596.146736697415	775.766107019638	153.712520312993	414.211431935297	830.007468821076	125.226581025288	324.896582844115	934.221801693952	141.880677640712	340.083043823922	1019.036443932490	43.920496080890	291.591061385971	949.049794824717	1059.659481237008	254.190303775488	1095.068732952808	844.893506532376	257.729775297873	942.991123131950	1066.556156640564	822.911418873195	1085.840410977863	848.575217531112	823.266285438618	
56	51.066428571429	764.061551825419	982.013680777402	555.017062465849	928.235923122465	1415.257252270100	368.569390949498	1032.509879849727	1350.290243098237	529.608069630500	950.744522252859	1420.023165356111	705.269760103547	912.756330182907	1479.917326762510	527.275411643147	1002.707564962605	926.576332262621	663.360352028728	974.817897000677	950.478135857982	390.107171112726	1055.028449140789	731.016991997696	613.795531253012	983.217588928616	610.562880133157	665.275598082863	1058.981792812326	569.038215940941	577.307365168197	1062.875313829438	471.774381340786	576.749149750445	1066.709617777033	770.416362191324	418.413906417594	1029.649449029498	643.603896795005	336.453303832317	1133.509178039227	585.450824290915	402.189045522295	1151.471882772692	498.652092916466	389.168954782039	1092.395194080266	429.732566194228	374.482507318641	956.783904219959	370.528617778009	329.864905110276	970.444543986932	236.507989710429	369.619302865626	1015.433989732656	384.987095062061	578.679077210955	930.475787709198	290.619552143182	639.658513594862	948.435128039195	195.545378227518	567.691479967454	787.667893745452	44.699511973398	539.528123721685	960.435446220983	95.198077791373	569.925768299030	872.530082809496	37.899934009722	611.332347222081	1080.716117961401	40.726871361726	596.234712710789	799.213540952488	135.593867639232	413.212072171328	855.130678951524	112.244338807745	323.351903200525	957.918437142842	136.298271693722	338.291209276288	1049.517328456993	45.594957293352	288.511454366602	932.118677120413	1057.087060484260	257.538104439418	1057.217564844912	829.057119718486	262.443742701723	959.194540798464	1066.325977550511	823.501439010350	1117.343835451571	859.442522418300	819.866774532717	
